<svg width="945" height="120" viewBox="0 0 945 120" fill="none" xmlns="http://www.w3.org/2000/svg">
<path d="M119.999 0V22.4961C140.708 22.4961 157.503 39.2912 157.503 60C157.503 80.7088 140.708 97.5038 119.999 97.5038C99.2904 97.5038 82.4953 80.7088 82.4953 60H59.9991C59.9991 93.1279 86.8713 120 119.999 120C153.127 120 179.999 93.1279 179.999 60C179.999 26.8721 153.127 0 119.999 0Z" fill="#66FF00"/>
<path d="M22.4961 60C22.4961 39.2912 39.2912 22.4961 60 22.4961C80.7088 22.4961 97.5039 39.2912 97.5039 60H120C120 26.8721 93.1279 0 60 0C26.8721 0 0 26.8721 0 60C0 93.1279 26.8721 120 60 120V97.5038C39.2912 97.5038 22.4961 80.7088 22.4961 60Z" fill="#66FF00"/>
<path d="M923.944 74.7609V113.775H944.529V69.0907C944.529 54.3295 935.192 44.16 920.153 44.16C911.216 44.16 904.437 48.3511 900.369 53.6515V45.7933H879.783V113.775H900.369V76.3942C900.369 68.4127 904.961 62.5884 912.572 62.5884C920.184 62.5884 923.944 67.7347 923.944 74.7917M810.446 79.784C810.446 69.6145 817.904 61.9104 827.919 61.9104C837.934 61.9104 845.269 69.6454 845.269 79.784C845.269 89.9227 837.811 97.6577 827.919 97.6577C818.027 97.6577 810.446 89.9227 810.446 79.784ZM844.714 45.7933V53.9289C840.646 48.6592 832.942 44.1908 823.574 44.1908C805.022 44.1908 789.984 59.5067 789.984 79.8149C789.984 100.123 805.022 115.439 823.574 115.439C832.911 115.439 840.646 110.97 844.714 105.701V113.836H865.3V45.8549H844.714V45.7933ZM742.31 63.5128H752.603V113.775H773.189V63.5128H786.871V45.7625H773.189V23.6669H752.603V45.7625H742.31V63.5128ZM712.757 113.775H733.343V45.7625H712.757V113.775ZM723.05 31.8333C729.676 31.8333 735.253 26.4096 735.253 19.63C735.253 12.8503 729.706 7.42657 723.05 7.42657C716.394 7.42657 710.723 12.8503 710.723 19.63C710.723 26.4096 716.27 31.8333 723.05 31.8333ZM668.628 60.801C677.441 60.801 682.033 66.6253 682.988 72.4497H653.189C655.623 65.1461 661.725 60.801 668.628 60.801ZM669.028 98.613C661.17 98.613 654.545 93.744 652.511 85.331H702.495C703.851 61.7563 690.723 44.16 668.505 44.16C649.799 44.16 633.435 59.1985 633.435 79.784C633.435 100.37 649.83 115.408 669.059 115.408C682.187 115.408 693.435 109.46 699.938 98.7363L685.454 88.7209C681.54 94.8226 677.041 98.613 669.059 98.613M603.605 113.775L634.76 45.7933H613.62L596.024 87.6423L578.273 45.7933H556.609L587.765 113.775H603.605ZM520.307 97.781C513.25 97.781 509.183 93.0352 509.183 85.0537V45.7625H488.597V85.5776C488.597 103.174 501.879 115.377 520.307 115.377C538.736 115.377 551.864 103.174 551.864 85.7008V45.7317H531.278V85.0229C531.278 93.0044 527.21 97.7501 520.307 97.7501M462.465 113.775H486.44L457.441 77.1954L485.762 45.7625H461.509L436.579 74.4836V4.59143H415.993V113.775H436.579V81.2632L462.434 113.775H462.465ZM357.904 113.775H378.489V45.7625H357.904V113.775ZM395.007 69.4913C401.91 69.4913 407.734 63.9443 407.734 56.8873C407.734 49.8303 401.91 44.2833 395.007 44.2833C388.104 44.2833 382.28 49.8303 382.28 56.8873C382.28 63.9443 388.104 69.4913 395.007 69.4913ZM325.515 62.7116C325.515 81.4173 311.833 95.0999 294.637 95.0999C277.441 95.0999 263.759 81.4173 263.759 62.7116C263.759 44.0059 277.565 30.3233 294.637 30.3233C311.71 30.3233 325.515 44.0059 325.515 62.7116ZM241.941 62.7116C241.941 91.7101 265.515 115.408 294.637 115.408C323.759 115.408 347.457 91.7101 347.457 62.7116C347.457 33.7132 324.036 10.0152 294.637 10.0152C265.238 10.0152 241.941 33.7132 241.941 62.7116Z" fill="white"/>
</svg>
